HIERARCHY
ROOT ui
{
	 OFFSET 0 0 0
	 CHANNELS 3 XPosition YPosition Z Position
	 EndSite
	 {
	 OFFSET 0 -1 0
	 }
}
ROOT li
{
	 OFFSET 0 0 0
	 CHANNELS 3 XPosition YPosition Z Position
	 EndSite
	 {
	 OFFSET 0 -1 0
	 }
}
ROOT ul
{
	 OFFSET 0 0 0
	 CHANNELS 3 XPosition YPosition Z Position
	 EndSite
	 {
	 OFFSET 0 -1 0
	 }
}
ROOT ll
{
	 OFFSET 0 0 0
	 CHANNELS 3 XPosition YPosition Z Position
	 EndSite
	 {
	 OFFSET 0 -1 0
	 }
}
ROOT tt
{
	 OFFSET 0 0 0
	 CHANNELS 3 XPosition YPosition Z Position
	 EndSite
	 {
	 OFFSET 0 -1 0
	 }
}
ROOT tb
{
	 OFFSET 0 0 0
	 CHANNELS 3 XPosition YPosition Z Position
	 EndSite
	 {
	 OFFSET 0 -1 0
	 }
}
ROOT td
{
	 OFFSET 0 0 0
	 CHANNELS 3 XPosition YPosition Z Position
	 EndSite
	 {
	 OFFSET 0 -1 0
	 }
}
ROOT v
{
	 OFFSET 0 0 0
	 CHANNELS 3 XPosition YPosition Z Position
	 EndSite
	 {
	 OFFSET 0 -1 0
	 }
}
ROOT bn
{
	 OFFSET 0 0 0
	 CHANNELS 3 XPosition YPosition Z Position
	 EndSite
	 {
	 OFFSET 0 -1 0
	 }
}
MOTION
Frames: 21
Frame Time: 0.002
-4.4221800565719604E-4	-2.988770008087158E-4	0		0.5933701171875	-2.634001953125	0		-1.1304940185546875	0.08196790313720703	0		-0.4918757629394531	-3.201352294921875	0		1.4266761474609375	-0.7923709106445312	0		2.99293115234375	-0.1480843048095703	0		4.4883837890625	0.11606546783447266	0		5.62651416015625	0.08050930786132812	0		-0.34785501098632815	5.91255615234375	0		
-5.42900025844574E-4	-3.6223500967025757E-4	0		0.5413643188476562	-2.627406494140625	0		-1.1567066650390625	0.07322673797607422	0		-0.5038436279296875	-3.192267822265625	0		1.426580078125	-0.7924260864257813	0		3.01089306640625	-0.1433579559326172	0		4.47338427734375	0.12421639251708984	0		5.62644384765625	0.08045437622070313	0		-0.2157225646972656	5.93282373046875	0		
-6.486849784851075E-4	-4.266909956932068E-4	0		0.5931981201171875	-2.6341220703125	0		-1.1178287353515626	0.0716622085571289	0		-0.49102777099609374	-3.200499267578125	0		1.4324039306640626	-0.79855517578125	0		3.010788330078125	-0.14340022277832032	0		4.47634033203125	0.1291466827392578	0		5.6334736328125	0.07500543975830078	0		-0.4162721557617188	5.90228173828125	0		
-7.582989931106568E-4	-4.909220039844513E-4	0		0.5531035766601563	-2.6346767578125	0		-1.186832763671875	0.08045614624023438	0		-0.4880575256347656	-3.196606201171875	0		1.43533935546875	-0.7956441040039063	0		3.0057685546875	-0.1363740692138672	0		4.48114111328125	0.12206158447265625	0		5.632123046875	0.10443428802490234	0		-0.3833510437011719	5.90879736328125	0		
0.005204633235931396	0.0053704228401184086	0		0.5970810546875	-2.630287353515625	0		-1.1059144287109375	0.08236024475097656	0		-0.48509548950195314	-3.19371240234375	0		1.435236328125	-0.7956903686523438	0		3.0255556640625	-0.1446533660888672	0		4.4761162109375	0.12911264038085937	0		5.62621337890625	0.08039141845703125	0		-0.3484832458496094	5.91228955078125	0		
-9.83847975730896E-4	-6.136040091514587E-4	0		0.5690191650390625	-2.628987060546875	0		-1.11006640625	0.07933530426025391	0		-0.4861767883300781	-3.1947666015625	0		1.4320965576171876	-0.7986923217773437	0		3.0254443359375	-0.14467108154296876	0		4.4721015625	0.13716485595703126	0		5.62613330078125	0.08042090606689453	0		-0.2164132080078125	5.9325634765625	0		
-0.0010978339910507203	-6.702939867973327E-4	0		0.5928840942382813	-2.634335205078125	0		-1.1261051025390625	0.08546063232421874	0		-0.49812387084960935	-3.185681396484375	0		1.4230341796875	-0.7956124877929688	0		3.007283935546875	-0.1484512939453125	0		4.48280859375	0.12304533386230469	0		5.6260546875	0.08048098754882813	0		-0.34987875366210935	5.9131748046875	0		
-0.0012117010354995728	-7.232049703598022E-4	0		0.566859130859375	-2.63105126953125	0		-1.118396728515625	0.0712874755859375	0		-0.49817816162109374	-3.185743408203125	0		1.4258095703125	-0.8056755981445313	0		2.99032470703125	-0.13623573303222655	0		4.48068017578125	0.12210147094726563	0		5.63016552734375	0.0631391716003418	0		-0.3822010498046875	5.90551708984375	0		
-0.0013246049880981446	-7.718070149421691E-4	0		0.57871044921875	-2.638238037109375	0		-1.1874056396484376	0.08007943725585938	0		-0.550185546875	-3.182151611328125	0		1.4348372802734375	-0.7958089599609375	0		3.034085693359375	-0.14677423095703124	0		4.4846396484375	0.12809225463867188	0		5.63465185546875	0.11847240447998048	0		-0.3814450378417969	5.9044482421875	0		
0.013625667572021485	0.003996716022491455	0		0.5837411499023437	-2.631332763671875	0		-1.1064871826171876	0.0819988784790039	0		-0.4792862243652344	-3.18709326171875	0		1.43474267578125	-0.7958229370117188	0		3.00510498046875	-0.1363934783935547	0		4.480451171875	0.1221919174194336	0		5.62873583984375	0.09281974792480469	0		-0.34958087158203127	5.91199609375	0		
-0.0015444999933242798	-8.536520004272461E-4	0		0.594673583984375	-2.632495849609375	0		-1.153681396484375	0.07552456665039063	0		-0.52618798828125	-3.17555615234375	0		1.4285634765625	-0.802755859375	0		3.00684912109375	-0.1483931884765625	0		4.48235205078125	0.12322186279296875	0		5.62993505859375	0.06350119018554687	0		-0.3498126220703125	5.91195068359375	0		
-0.001651952028274536	-8.860899806022644E-4	0		0.5946196899414062	-2.63251611328125	0		-1.11479345703125	0.07498296356201171	0		-0.49227081298828124	-3.1790224609375	0		1.4254351806640626	-0.8057216186523437	0		2.996658203125	-0.1552393035888672	0		4.47225537109375	0.12440514373779298	0		5.63280322265625	0.08085187530517578	0		-0.3661512451171875	5.903111328125	0		
-0.0017593090534210206	-9.125890135765075E-4	0		0.5665780639648438	-2.63118310546875	0		-1.153899169921875	0.07541981506347656	0		-0.5602241821289062	-3.17121337890625	0		1.425343505859375	-0.8057203979492188	0		3.011552734375	-0.1553941192626953	0		4.4801201171875	0.12236617279052735	0		5.63270166015625	0.07580194091796875	0		-0.38432208251953126	5.90730126953125	0		
-0.0018677079677581786	-9.328110218048096E-4	0		0.5685418090820312	-2.629218017578125	0		-1.148959716796875	0.07931639099121093	0		-0.4893304748535156	-3.176125	0		1.43419921875	-0.8098262939453125	0		3.00468359375	-0.13627447509765625	0		4.4750966796875	0.12948843383789063	0		5.63262646484375	0.07593949890136718	0		-0.3845371704101562	5.90727392578125	0		
0.001059075951576233	0.002016326904296875	0		0.5465634155273438	-2.62194970703125	0		-1.1840189208984375	0.08371775817871094	0		-0.5661343994140625	-3.155193115234375	0		1.428189697265625	-0.8027421875	0		3.026325927734375	-0.1565096435546875	0		4.474984375	0.12954876708984375	0		5.62835986328125	0.0935010986328125	0		-0.3506853332519531	5.91183251953125	0		
-0.0020903310775756837	-9.523149728775024E-4	0		0.5943623046875	-2.63254150390625	0		-1.111187744140625	0.07879034423828125	0		-0.4982920227050781	-3.16304931640625	0		1.42505224609375	-0.805689697265625	0		3.03027734375	-0.151520751953125	0		4.47180859375	0.1246465835571289	0		5.6253662109375	0.08160869598388672	0		-0.35187295532226565	5.91283349609375	0		
-0.007155324935913086	0.003110982894897461	0		0.568321044921875	-2.62921044921875	0		-1.154349853515625	0.07530985260009766	0		-0.49836541748046875	-3.163053955078125	0		1.4218985595703124	-0.8096317749023437	0		3.006203369140625	-0.14818254089355468	0		4.47169189453125	0.12470699310302734	0		5.62528515625	0.08173680114746094	0		-0.3520653686523437	5.91283056640625	0		
-0.002322026014328003	-9.407560229301453E-4	0		0.602058349609375	-2.64361328125	0		-1.1195196533203124	0.0708742904663086	0		-0.49844644165039065	-3.1630498046875	0		1.4217908935546875	-0.8096058349609375	0		2.99108935546875	-0.14795323181152345	0		4.475474609375	0.11671865844726563	0		5.63230908203125	0.0764583740234375	0		-0.4194047546386719	5.90066552734375	0		
0.002498405933380127	-0.005984099864959716	0		0.5540933227539062	-2.632997314453125	0		-1.145487548828125	0.08320187377929687	0		-0.5155323486328125	-3.162826416015625	0		1.4306435546875	-0.8126851806640625	0		3.013947021484375	-0.1501905517578125	0		4.4774052734375	0.12075444030761719	0		5.6351416015625	0.08860443115234375	0		-0.3353379211425781	5.919640625	0		
0.007566969871520996	0.0089796142578125	0		0.5990932006835937	-2.6255224609375	0		-1.1076197509765624	0.08175039672851563	0		-0.5234501953125	-3.148706298828125	0		1.4307064208984375	-0.7986483764648438	0		3.008918701171875	-0.1430789794921875	0		4.4793125	0.12279155731201172	0		5.63505908203125	0.08872593688964844	0		-0.3515985107421875	5.91186279296875	0		
3.673439919948578E-4	0.0021018741130828856	0		0.5419883422851562	-2.625780029296875	0		-1.1177086181640625	0.08390182495117188	0		-0.4926324462890625	-3.156056396484375	0		1.421462890625	-0.8094920043945313	0		2.995658935546875	-0.15486305236816406	0		4.4751240234375	0.11690544128417969	0		5.627873046875	0.09425142669677734	0		-0.35175018310546874	5.9118955078125	0		
